<svg id="Capa_1" data-name="Capa 1" xmlns="http://www.w3.org/2000/svg" viewBox="0 0 16 16"><defs><style>.cls-1{fill:#fff;}.cls-2{fill:#aaa;}.cls-3{fill:#777;}</style></defs><path class="cls-1" d="M3.37,15.25a.74.74,0,0,1-.74-.74V1.61a.71.71,0,0,1,.22-.53A.72.72,0,0,1,3.37.87H9.7a.72.72,0,0,1,.52.21l3.51,3.53a.76.76,0,0,1,.24.53v9.37a.74.74,0,0,1-.74.74Z"/><path class="cls-2" d="M9.69,1.62l3.53,3.52V14.5H3.38V1.62H9.69m0-1.5H3.37A1.49,1.49,0,0,0,1.88,1.61v12.9A1.49,1.49,0,0,0,3.37,16h9.86a1.49,1.49,0,0,0,1.49-1.49V5.14a1.53,1.53,0,0,0-.45-1.06h0L10.75.55A1.47,1.47,0,0,0,9.7.12Z"/><path class="cls-3" d="M8.34,7a6.41,6.41,0,0,1-.91-1.29c.64-2.2.73-3.72.2-4.48A1.37,1.37,0,0,0,6.43.61a1.28,1.28,0,0,0-1.26.79c-.44,1,.24,2.9,1,4.43-.21.7-.5,1.49-.85,2.34a13.31,13.31,0,0,1-.64,1.38C3,10.22,1,11.24.78,12.47a1.21,1.21,0,0,0,.47,1.23A1.13,1.13,0,0,0,2,14a1.35,1.35,0,0,0,.35-.06c1.09-.27,2.23-1.88,3.11-3.46.49-.17,1.08-.38,1.69-.55s1.41-.38,2-.5a4.92,4.92,0,0,0,2.87,1.35,2,2,0,0,0,1.52-.65,1.13,1.13,0,0,0,.29-1.4c-.47-.8-2-1-4.36-.53-.35-.35-.76-.76-1.17-1.2ZM2.13,12.83c-.09,0-.12,0-.21-.15s.62-.85,1.82-1.44c-.62.88-1.2,1.5-1.61,1.59Zm4.07-11c0-.06,0-.09.2-.09s.24.06.27.12a3.79,3.79,0,0,1,0,2.26A4.06,4.06,0,0,1,6.2,1.87Zm.7,6.94c-.2.06-.44.12-.67.21l.17-.41c.21-.53.41-1,.56-1.5a7.78,7.78,0,0,0,.53.68c.23.23.47.47.67.7L6.9,8.81Zm5.92.5c-.15.26-.38.29-.71.29a2.83,2.83,0,0,1-1.31-.46c1.43-.15,2.16-.09,2,.17Z"/></svg>